<svg xmlns="http://www.w3.org/2000/svg" viewBox="0 0 1200 630" fill="none">
  <defs>
    <linearGradient id="bg" x1="0" y1="0" x2="1200" y2="630" gradientUnits="userSpaceOnUse">
      <stop stop-color="#3B82F6"/>
      <stop offset="1" stop-color="#7C3AED"/>
    </linearGradient>
  </defs>
  <rect width="1200" height="630" fill="url(#bg)"/>
  <rect x="80" y="80" width="120" height="120" rx="28" fill="white" fill-opacity="0.15"/>
  <path d="M110 155L140 130l30 25v50a4 4 0 0 1-2.2 3.6L140 220l-27.8-13.4A4 4 0 0 1 110 205V155z" fill="white"/>
  <path d="M140 130v90" stroke="#3B82F6" stroke-width="3" stroke-linecap="round"/>
  <path d="M110 155L140 175l30-20" stroke="#3B82F6" stroke-width="3" stroke-linecap="round"/>
  <path d="M175 105l2 6 6 2-6 2-2 6-2-6-6-2 6-2 2-6z" fill="#FBBF24"/>
  <text x="230" y="175" font-family="system-ui, sans-serif" font-size="64" font-weight="700" fill="white">StockMind AI</text>
  <text x="230" y="240" font-family="system-ui, sans-serif" font-size="32" fill="white" fill-opacity="0.85">AI-powered inventory dashboard for SMEs</text>
</svg>
