<svg xmlns="http://www.w3.org/2000/svg" viewBox="0 0 32 32" fill="none">
  <defs>
    <linearGradient id="bg" x1="4" y1="2" x2="28" y2="30" gradientUnits="userSpaceOnUse">
      <stop stop-color="#3B82F6"/>
      <stop offset="1" stop-color="#7C3AED"/>
    </linearGradient>
  </defs>
  <rect width="32" height="32" rx="8" fill="url(#bg)"/>
  <!-- Box / inventory -->
  <path d="M8 13.5L16 9l8 4.5v9.5a1 1 0 0 1-.55.894L16 27.5l-7.45-3.61A1 1 0 0 1 8 23V13.5z" fill="white" fill-opacity="0.95"/>
  <path d="M16 9v18.5" stroke="#3B82F6" stroke-width="1.2" stroke-linecap="round"/>
  <path d="M8 13.5L16 18l8-4.5" stroke="#3B82F6" stroke-width="1.2" stroke-linecap="round" stroke-linejoin="round"/>
  <!-- AI sparkle -->
  <path d="M22.5 6.5l.6 1.8 1.8.6-1.8.6-.6 1.8-.6-1.8-1.8-.6 1.8-.6.6-1.8z" fill="#FBBF24"/>
  <circle cx="24.5" cy="11" r="1" fill="#FDE68A"/>
</svg>
